<svg xmlns="http://www.w3.org/2000/svg" xmlns:xlink="http://www.w3.org/1999/xlink" id="Layer_2" viewBox="0 0 542.31 587.21"><defs><style>.cls-1{fill:none;}.cls-2{fill:url(#linear-gradient);}.cls-3{clip-path:url(#clippath);}.cls-4{fill:#1e2660;}.cls-5{fill:url(#linear-gradient-3);}.cls-6{fill:url(#linear-gradient-2);}</style><clipPath id="clippath"><path class="cls-1" d="M0,0H356.55c121.5,0,174.32,80.99,174.32,149.66,0,73.08-43.14,122.38-100.37,134.7,63.39,9.68,111.81,67.79,111.81,143.5,0,81.88-55.47,159.35-173.43,159.35H0V0Z"></path></clipPath><linearGradient id="linear-gradient" x1="0" y1="270.12" x2="364.98" y2="270.12" gradientUnits="userSpaceOnUse"><stop offset="0" stop-color="#f7b882"></stop><stop offset=".5" stop-color="#ec2e64"></stop><stop offset="1" stop-color="#3b2766"></stop></linearGradient><linearGradient id="linear-gradient-2" y1="287.66" x2="530.73" y2="287.66" xlink:href="#linear-gradient"></linearGradient><linearGradient id="linear-gradient-3" x1="0" y1="316.24" x2="674.23" y2="316.24" xlink:href="#linear-gradient"></linearGradient></defs><g id="Layer_1-2"><g><path class="cls-4" d="M0,0H356.55c121.5,0,174.32,80.99,174.32,149.66,0,73.08-43.14,122.38-100.37,134.7,63.39,9.68,111.81,67.79,111.81,143.5,0,81.88-55.47,159.35-173.43,159.35H0V0Z"></path><g class="cls-3"><polygon class="cls-2" points="0 587.21 182.53 -46.97 364.98 -23.08 0 587.21"></polygon><polygon class="cls-6" points="0 587.21 358.37 -11.89 530.73 35.02 0 587.21"></polygon><path class="cls-5" d="M674.23,113.5l-155.22-68.23L0,587.21,431.16,284.28c3.36-.42,20.1-3.16,42.5-18.03,24.57-16.32,35.66-36.36,36.12-37.2l164.45-115.54Z"></path></g></g></g></svg>